# xmcd
#
# Track frame offsets:
#	150
#	12336
#	24383
#	38235
#	49823
#	64260
#	76048
#	90162
#	102100
#	116491
#	128394
#	138888
#	153180
#
# Disc length: 2242 seconds
#
# Revision: 0
# Processed by: cddbd v1.5.2PL0 Copyright (c) Steve Scherf et al.
# Submitted via: audiograbber 1.83.01
#
DISCID=8c08c00d
DTITLE=ZILLERTAL PUR - Schneidig, riabig, super drauf
DYEAR=2013
DGENRE=volkstümlich
TTITLE0=Wenn die Musig klingt
TTITLE1=I bin a Bauernbua
TTITLE2=Dort wo der Enzian blüht
TTITLE3=A bissal musizieren
TTITLE4=Zauberwelt, du meine Berge
TTITLE5=Schneidig, riabig, super drauf
TTITLE6=Schenk mir noch einmal
TTITLE7=Im Tal der Liebe
TTITLE8=Der Herbst ist schon da
TTITLE9=So wia unsre Natur
TTITLE10=Zillertal Pur-Polka 
TTITLE11=Sternenregen
TTITLE12=Kropfate Pinzgerin
EXTD=
EXTT0=
EXTT1=
EXTT2=
EXTT3=
EXTT4=
EXTT5=
EXTT6=
EXTT7=
EXTT8=
EXTT9=
EXTT10=
EXTT11=
EXTT12=
PLAYORDER=
